<?xml version="1.0" encoding="UTF-8"?>
<svg width="752pt" height="752pt" version="1.1" viewBox="0 0 752 752" xmlns="http://www.w3.org/2000/svg">
 <path d="m257.61 553.59c0 16.598-9.75 29.598-22.199 29.598s-22.199-13-22.199-29.598 9.75-29.598 22.199-29.598c12.453 0 22.199 13 22.199 29.598zm22.199-96.195c-12.449 0-22.199 13-22.199 29.598s9.75 29.598 22.199 29.598c12.449 0 22.199-13 22.199-29.598s-9.7461-29.598-22.199-29.598zm-51.797-7.3984c0-16.598-9.75-29.598-22.199-29.598-12.449-0.003906-22.199 13-22.199 29.598s9.75 29.598 22.199 29.598c12.449 0 22.199-13 22.199-29.598zm157.73-162.41c9.4062 3.7891 17.492 10.254 23.258 18.594 0.47266-2.3203 0.58984-4.7031 0.34375-7.0625-1.1797-7.6523-4.7695-14.73-10.246-20.207-5.4766-5.4766-12.555-9.0664-20.211-10.25-0.95312-0.10547-1.9102-0.16406-2.8672-0.16406-3.1016-0.015625-6.1641 0.67969-8.9531 2.0352 4.3594 7.4414 10.871 13.387 18.676 17.055zm-18.035 22.711c5.3867 5.5977 12.508 9.2109 20.207 10.25 4.0391 0.50781 8.1367-0.14453 11.812-1.8906-4.3594-7.4336-10.867-13.371-18.668-17.035-9.4062-3.793-17.492-10.258-23.262-18.598-0.47266 2.3242-0.58594 4.707-0.33984 7.0625 1.0391 7.7031 4.6484 14.824 10.25 20.215zm-43.504-15.695c0-15.699 6.2383-30.758 17.34-41.859 11.102-11.102 26.156-17.34 41.859-17.34 15.699 0 30.758 6.2383 41.859 17.34 11.102 11.102 17.336 26.16 17.336 41.859s-6.2344 30.758-17.336 41.859c-11.102 11.102-26.16 17.336-41.859 17.336-15.695-0.015625-30.742-6.2578-41.84-17.355-11.098-11.098-17.34-26.145-17.359-41.84zm18.543-2.8867c1.5547 10.996 6.6406 21.191 14.496 29.047 7.8516 7.8555 18.047 12.941 29.043 14.496 1.5195 0.16797 3.043 0.25391 4.5703 0.25391 8.9336 0.17969 17.566-3.25 23.941-9.5195 0.12891-0.12891 0.23438-0.27344 0.35938-0.40234l0.058594-0.066406c7.0312-7.5312 10.281-17.836 8.8398-28.035-1.5547-11-6.6406-21.191-14.496-29.043-7.8516-7.8555-18.047-12.941-29.043-14.496-10.426-1.5-20.957 1.9219-28.508 9.2617-0.12891 0.12891-0.23437 0.27344-0.35937 0.40625l-0.058594 0.066406c-7.0312 7.5273-10.285 17.836-8.8438 28.035zm222.14-121.8c-2.1797-1.3516-4.9062-1.4766-7.1992-0.32422l-18.891 9.4453v231.14l18.891 9.4453c2.293 1.1484 5.0195 1.0234 7.2031-0.32422 2.1797-1.3477 3.5078-3.7305 3.5078-6.2969v-236.79c-0.003906-2.5664-1.332-4.9453-3.5117-6.293zm-322.07 13.695h281.19v221.99h-231.97c-3.1328 0-5.9297-1.9727-6.9727-4.9297-2.5547-7.2031-7.2734-13.441-13.512-17.859-6.2383-4.418-13.688-6.7969-21.332-6.8125-2.4883 0.03125-4.9688 0.32031-7.3984 0.85938zm66.598 111h-0.003906c0 19.625 7.7969 38.445 21.676 52.324 13.875 13.875 32.699 21.672 52.324 21.672s38.445-7.7969 52.324-21.672c13.875-13.879 21.672-32.699 21.672-52.324s-7.7969-38.449-21.672-52.324c-13.879-13.879-32.699-21.672-52.324-21.672-19.617 0.019531-38.426 7.8242-52.297 21.695-13.875 13.871-21.676 32.68-21.703 52.297zm-103.6 66.594c4.3828-0.007813 8.6719 1.2891 12.316 3.7227 3.6484 2.4297 6.4922 5.8906 8.1719 9.9414 0.39062 0.93359 0.97656 1.7734 1.7109 2.4688v-198.3l-18.891-9.4453c-2.293-1.1484-5.0156-1.0234-7.1992 0.32422-2.1836 1.3477-3.5078 3.7305-3.5078 6.2969v177.59c0 1.9648 0.77734 3.8477 2.1641 5.2344 1.3906 1.3867 3.2734 2.168 5.2344 2.168z"/>
</svg>
