<svg width="23" height="23" viewBox="0 0 23 23" fill="none" xmlns="http://www.w3.org/2000/svg">
<path d="M11.25 0.046875C12.2812 0.046875 13.2734 0.179687 14.2266 0.445312C15.1797 0.710938 16.0703 1.08984 16.8984 1.58203C17.7344 2.06641 18.4922 2.64844 19.1719 3.32812C19.8516 4.00781 20.4336 4.76563 20.918 5.60156C21.4102 6.42969 21.7891 7.32031 22.0547 8.27344C22.3203 9.22656 22.4531 10.2188 22.4531 11.25C22.4531 12.2812 22.3203 13.2734 22.0547 14.2266C21.7891 15.1797 21.4102 16.0742 20.918 16.9102C20.4336 17.7383 19.8516 18.4922 19.1719 19.1719C18.4922 19.8516 17.7344 20.4375 16.8984 20.9297C16.0703 21.4141 15.1797 21.7891 14.2266 22.0547C13.2734 22.3203 12.2812 22.4531 11.25 22.4531C10.2188 22.4531 9.22656 22.3203 8.27344 22.0547C7.32031 21.7891 6.42578 21.4141 5.58984 20.9297C4.76172 20.4375 4.00781 19.8516 3.32812 19.1719C2.64844 18.4922 2.0625 17.7383 1.57031 16.9102C1.08594 16.0742 0.710938 15.1797 0.445312 14.2266C0.179688 13.2734 0.046875 12.2812 0.046875 11.25C0.046875 10.2188 0.179688 9.22656 0.445312 8.27344C0.710938 7.32031 1.08594 6.42969 1.57031 5.60156C2.0625 4.76563 2.64844 4.00781 3.32812 3.32812C4.00781 2.64844 4.76172 2.06641 5.58984 1.58203C6.42578 1.08984 7.32031 0.710938 8.27344 0.445312C9.22656 0.179687 10.2188 0.046875 11.25 0.046875ZM11.25 21.0469C12.1484 21.0469 13.0156 20.9297 13.8516 20.6953C14.6875 20.4609 15.4688 20.1328 16.1953 19.7109C16.9219 19.2812 17.582 18.7695 18.1758 18.1758C18.7695 17.582 19.2773 16.9219 19.6992 16.1953C20.1289 15.4688 20.4609 14.6875 20.6953 13.8516C20.9297 13.0156 21.0469 12.1484 21.0469 11.25C21.0469 10.3516 20.9297 9.48438 20.6953 8.64844C20.4609 7.8125 20.1289 7.03125 19.6992 6.30469C19.2773 5.57812 18.7695 4.91797 18.1758 4.32422C17.582 3.73047 16.9219 3.22266 16.1953 2.80078C15.4688 2.37109 14.6875 2.03906 13.8516 1.80469C13.0156 1.57031 12.1484 1.45312 11.25 1.45312C10.3516 1.45312 9.48438 1.57031 8.64844 1.80469C7.8125 2.03906 7.03125 2.37109 6.30469 2.80078C5.57812 3.22266 4.91797 3.73047 4.32422 4.32422C3.73047 4.91797 3.21875 5.57812 2.78906 6.30469C2.36719 7.03125 2.03906 7.8125 1.80469 8.64844C1.57031 9.48438 1.45312 10.3516 1.45312 11.25C1.45312 12.1484 1.57031 13.0156 1.80469 13.8516C2.03906 14.6875 2.36719 15.4688 2.78906 16.1953C3.21875 16.9219 3.73047 17.582 4.32422 18.1758C4.91797 18.7695 5.57812 19.2812 6.30469 19.7109C7.03125 20.1328 7.8125 20.4609 8.64844 20.6953C9.48438 20.9297 10.3516 21.0469 11.25 21.0469ZM10.5 16.5H12V18H10.5V16.5ZM11.25 5.25C11.7656 5.25 12.25 5.35156 12.7031 5.55469C13.1562 5.75 13.5508 6.01953 13.8867 6.36328C14.2305 6.69922 14.5 7.09375 14.6953 7.54688C14.8984 8 15 8.48438 15 9C15 9.46875 14.9258 9.87891 14.7773 10.2305C14.6289 10.5742 14.4414 10.8867 14.2148 11.168C13.9961 11.4492 13.7578 11.707 13.5 11.9414C13.2422 12.168 13 12.3984 12.7734 12.6328C12.5547 12.8594 12.3711 13.1055 12.2227 13.3711C12.0742 13.6289 12 13.9219 12 14.25V15H10.5V14.25C10.5 13.7812 10.5742 13.375 10.7227 13.0312C10.8711 12.6797 11.0547 12.3633 11.2734 12.082C11.5 11.8008 11.7422 11.5469 12 11.3203C12.2578 11.0859 12.4961 10.8555 12.7148 10.6289C12.9414 10.3945 13.1289 10.1484 13.2773 9.89062C13.4258 9.63281 13.5 9.33594 13.5 9C13.5 8.6875 13.4414 8.39453 13.3242 8.12109C13.207 7.84766 13.0469 7.60937 12.8438 7.40625C12.6406 7.20313 12.4023 7.04297 12.1289 6.92578C11.8555 6.80859 11.5625 6.75 11.25 6.75C10.9375 6.75 10.6445 6.80859 10.3711 6.92578C10.0977 7.04297 9.85938 7.20313 9.65625 7.40625C9.45312 7.60937 9.29297 7.84766 9.17578 8.12109C9.05859 8.39453 9 8.6875 9 9H7.5C7.5 8.48438 7.59766 8 7.79297 7.54688C7.98828 7.09375 8.25391 6.69922 8.58984 6.36328C8.93359 6.01953 9.33203 5.75 9.78516 5.55469C10.2461 5.35156 10.7344 5.25 11.25 5.25Z" fill="#605E5C"/>
</svg>
